<svg version="1" xmlns="http://www.w3.org/2000/svg" width="780" height="780" viewBox="0 0 585.000000 585.000000"><path d="M0 90v90.1l3.3-1.7c1.7-.9 67.3-36.3 145.6-78.7 78.4-42.4 143-77 143.6-77 .6 0 65.2 34.6 143.6 77 78.3 42.4 143.9 77.8 145.7 78.7l3.2 1.7V0H0v90z"/><path d="M146.6 176.4C67 219.5 1.4 255.2.9 255.7s-.8 17-.7 37.6l.3 36.6L146.4 251l146-79 11 5.9c6.1 3.3 71.9 38.8 146.1 79l135 73 .3-36.6c.2-28.6-.1-37-1-37.9-1.7-1.5-288.6-156.6-290.7-157-.9-.2-66.8 34.9-146.5 78z"/><path d="M146.5 326.4C66.8 369.6 1.2 405.1.7 405.2c-.4.2-.6 17-.5 37.5l.3 37.2 146-79 145.9-79 4.6 2.5c2.5 1.3 67.3 36.3 144 77.8s140.5 76 141.8 76.7l2.2 1.2v-37.3l-.1-37.3L440 327.2c-79.8-43.1-145.8-78.6-146.7-78.8-1.1-.3-61.7 32-146.8 78z"/><path d="M146.3 476.4L0 555.5V585h585v-29.5l-139.3-75.3c-76.5-41.4-142.3-77-146.2-79.1l-7-3.7-146.2 79z"/></svg>